<svg xmlns="http://www.w3.org/2000/svg" width="175" height="175" viewBox="0 0 175 175">
  <g id="Group_2" data-name="Group 2" transform="translate(-401 -186)">
    <rect id="Rectangle_2" data-name="Rectangle 2" width="39" height="39" rx="8" transform="translate(401 186)" fill="#ececec"/>
    <rect id="Rectangle_2-2" data-name="Rectangle 2" width="40" height="39" rx="8" transform="translate(446 186)" fill="#ececec"/>
    <rect id="Rectangle_2-3" data-name="Rectangle 2" width="40" height="39" rx="8" transform="translate(491 186)" fill="#ececec"/>
    <rect id="Rectangle_2-4" data-name="Rectangle 2" width="39" height="39" rx="8" transform="translate(537 186)" fill="#ececec"/>
    <rect id="Rectangle_2-5" data-name="Rectangle 2" width="39" height="40" rx="8" transform="translate(401 231)" fill="#ececec"/>
    <rect id="Rectangle_2-6" data-name="Rectangle 2" width="40" height="40" rx="8" transform="translate(446 231)" fill="#ececec"/>
    <rect id="Rectangle_2-7" data-name="Rectangle 2" width="40" height="40" rx="8" transform="translate(491 231)" fill="#ececec"/>
    <rect id="Rectangle_2-8" data-name="Rectangle 2" width="39" height="40" rx="8" transform="translate(537 231)" fill="#ececec"/>
    <rect id="Rectangle_2-9" data-name="Rectangle 2" width="39" height="40" rx="8" transform="translate(401 276)" fill="#ececec"/>
    <rect id="Rectangle_2-10" data-name="Rectangle 2" width="40" height="40" rx="8" transform="translate(446 276)" fill="#ececec"/>
    <rect id="Rectangle_2-11" data-name="Rectangle 2" width="40" height="40" rx="8" transform="translate(491 276)" fill="#ececec"/>
    <rect id="Rectangle_2-12" data-name="Rectangle 2" width="39" height="40" rx="8" transform="translate(537 276)" fill="#ececec"/>
    <rect id="Rectangle_2-13" data-name="Rectangle 2" width="39" height="39" rx="8" transform="translate(401 322)" fill="#ececec"/>
    <rect id="Rectangle_2-14" data-name="Rectangle 2" width="40" height="39" rx="8" transform="translate(446 322)" fill="#ececec"/>
    <rect id="Rectangle_2-15" data-name="Rectangle 2" width="40" height="39" rx="8" transform="translate(491 322)" fill="#ececec"/>
    <rect id="Rectangle_2-16" data-name="Rectangle 2" width="39" height="39" rx="8" transform="translate(537 322)" fill="#ececec"/>
  </g>
</svg>
