<svg xmlns="http://www.w3.org/2000/svg" width="175" height="175" viewBox="0 0 175 175">
  <g id="Group_4" data-name="Group 4" transform="translate(-652 -186)">
    <rect id="Rectangle_3" data-name="Rectangle 3" width="31" height="31" rx="5" transform="translate(652 186)" fill="#ececec"/>
    <rect id="Rectangle_3-2" data-name="Rectangle 3" width="31" height="31" rx="5" transform="translate(688 186)" fill="#ececec"/>
    <rect id="Rectangle_3-3" data-name="Rectangle 3" width="31" height="31" rx="5" transform="translate(724 186)" fill="#ececec"/>
    <rect id="Rectangle_3-4" data-name="Rectangle 3" width="31" height="31" rx="5" transform="translate(760 186)" fill="#ececec"/>
    <rect id="Rectangle_3-5" data-name="Rectangle 3" width="31" height="31" rx="5" transform="translate(796 186)" fill="#ececec"/>
    <rect id="Rectangle_3-6" data-name="Rectangle 3" width="31" height="31" rx="5" transform="translate(652 222)" fill="#ececec"/>
    <rect id="Rectangle_3-7" data-name="Rectangle 3" width="31" height="31" rx="5" transform="translate(688 222)" fill="#ececec"/>
    <rect id="Rectangle_3-8" data-name="Rectangle 3" width="31" height="31" rx="5" transform="translate(724 222)" fill="#ececec"/>
    <rect id="Rectangle_3-9" data-name="Rectangle 3" width="31" height="31" rx="5" transform="translate(760 222)" fill="#ececec"/>
    <rect id="Rectangle_3-10" data-name="Rectangle 3" width="31" height="31" rx="5" transform="translate(796 222)" fill="#ececec"/>
    <rect id="Rectangle_3-11" data-name="Rectangle 3" width="31" height="31" rx="5" transform="translate(652 258)" fill="#ececec"/>
    <rect id="Rectangle_3-12" data-name="Rectangle 3" width="31" height="31" rx="5" transform="translate(688 258)" fill="#ececec"/>
    <rect id="Rectangle_3-13" data-name="Rectangle 3" width="31" height="31" rx="5" transform="translate(724 258)" fill="#ececec"/>
    <rect id="Rectangle_3-14" data-name="Rectangle 3" width="31" height="31" rx="5" transform="translate(760 258)" fill="#ececec"/>
    <rect id="Rectangle_3-15" data-name="Rectangle 3" width="31" height="31" rx="5" transform="translate(796 258)" fill="#ececec"/>
    <rect id="Rectangle_3-16" data-name="Rectangle 3" width="31" height="31" rx="5" transform="translate(652 294)" fill="#ececec"/>
    <rect id="Rectangle_3-17" data-name="Rectangle 3" width="31" height="31" rx="5" transform="translate(688 294)" fill="#ececec"/>
    <rect id="Rectangle_3-18" data-name="Rectangle 3" width="31" height="31" rx="5" transform="translate(724 294)" fill="#ececec"/>
    <rect id="Rectangle_3-19" data-name="Rectangle 3" width="31" height="31" rx="5" transform="translate(760 294)" fill="#ececec"/>
    <rect id="Rectangle_3-20" data-name="Rectangle 3" width="31" height="31" rx="5" transform="translate(796 294)" fill="#ececec"/>
    <rect id="Rectangle_3-21" data-name="Rectangle 3" width="31" height="31" rx="5" transform="translate(652 330)" fill="#ececec"/>
    <rect id="Rectangle_3-22" data-name="Rectangle 3" width="31" height="31" rx="5" transform="translate(688 330)" fill="#ececec"/>
    <rect id="Rectangle_3-23" data-name="Rectangle 3" width="31" height="31" rx="5" transform="translate(724 330)" fill="#ececec"/>
    <rect id="Rectangle_3-24" data-name="Rectangle 3" width="31" height="31" rx="5" transform="translate(760 330)" fill="#ececec"/>
    <rect id="Rectangle_3-25" data-name="Rectangle 3" width="31" height="31" rx="5" transform="translate(796 330)" fill="#ececec"/>
  </g>
</svg>
