<svg xmlns="http://www.w3.org/2000/svg" width="175" height="175" viewBox="0 0 175 175">
  <g id="Group_3" data-name="Group 3" transform="translate(-888 -186)">
    <rect id="Rectangle_4" data-name="Rectangle 4" width="26" height="26" rx="4" transform="translate(888 186)" fill="#ececec"/>
    <rect id="Rectangle_4-2" data-name="Rectangle 4" width="26" height="26" rx="4" transform="translate(918 186)" fill="#ececec"/>
    <rect id="Rectangle_4-3" data-name="Rectangle 4" width="26" height="26" rx="4" transform="translate(948 186)" fill="#ececec"/>
    <rect id="Rectangle_4-4" data-name="Rectangle 4" width="26" height="26" rx="4" transform="translate(977 186)" fill="#ececec"/>
    <rect id="Rectangle_4-5" data-name="Rectangle 4" width="26" height="26" rx="4" transform="translate(1007 186)" fill="#ececec"/>
    <rect id="Rectangle_4-6" data-name="Rectangle 4" width="26" height="26" rx="4" transform="translate(1037 186)" fill="#ececec"/>
    <rect id="Rectangle_4-7" data-name="Rectangle 4" width="26" height="26" rx="4" transform="translate(888 216)" fill="#ececec"/>
    <rect id="Rectangle_4-8" data-name="Rectangle 4" width="26" height="26" rx="4" transform="translate(918 216)" fill="#ececec"/>
    <rect id="Rectangle_4-9" data-name="Rectangle 4" width="26" height="26" rx="4" transform="translate(948 216)" fill="#ececec"/>
    <rect id="Rectangle_4-10" data-name="Rectangle 4" width="26" height="26" rx="4" transform="translate(977 216)" fill="#ececec"/>
    <rect id="Rectangle_4-11" data-name="Rectangle 4" width="26" height="26" rx="4" transform="translate(1007 216)" fill="#ececec"/>
    <rect id="Rectangle_4-12" data-name="Rectangle 4" width="26" height="26" rx="4" transform="translate(1037 216)" fill="#ececec"/>
    <rect id="Rectangle_4-13" data-name="Rectangle 4" width="26" height="26" rx="4" transform="translate(888 246)" fill="#ececec"/>
    <rect id="Rectangle_4-14" data-name="Rectangle 4" width="26" height="26" rx="4" transform="translate(918 246)" fill="#ececec"/>
    <rect id="Rectangle_4-15" data-name="Rectangle 4" width="26" height="26" rx="4" transform="translate(948 246)" fill="#ececec"/>
    <rect id="Rectangle_4-16" data-name="Rectangle 4" width="26" height="26" rx="4" transform="translate(977 246)" fill="#ececec"/>
    <rect id="Rectangle_4-17" data-name="Rectangle 4" width="26" height="26" rx="4" transform="translate(1007 246)" fill="#ececec"/>
    <rect id="Rectangle_4-18" data-name="Rectangle 4" width="26" height="26" rx="4" transform="translate(1037 246)" fill="#ececec"/>
    <rect id="Rectangle_4-19" data-name="Rectangle 4" width="26" height="26" rx="4" transform="translate(888 275)" fill="#ececec"/>
    <rect id="Rectangle_4-20" data-name="Rectangle 4" width="26" height="26" rx="4" transform="translate(918 275)" fill="#ececec"/>
    <rect id="Rectangle_4-21" data-name="Rectangle 4" width="26" height="26" rx="4" transform="translate(948 275)" fill="#ececec"/>
    <rect id="Rectangle_4-22" data-name="Rectangle 4" width="26" height="26" rx="4" transform="translate(977 275)" fill="#ececec"/>
    <rect id="Rectangle_4-23" data-name="Rectangle 4" width="26" height="26" rx="4" transform="translate(1007 275)" fill="#ececec"/>
    <rect id="Rectangle_4-24" data-name="Rectangle 4" width="26" height="26" rx="4" transform="translate(1037 275)" fill="#ececec"/>
    <rect id="Rectangle_4-25" data-name="Rectangle 4" width="26" height="26" rx="4" transform="translate(888 305)" fill="#ececec"/>
    <rect id="Rectangle_4-26" data-name="Rectangle 4" width="26" height="26" rx="4" transform="translate(918 305)" fill="#ececec"/>
    <rect id="Rectangle_4-27" data-name="Rectangle 4" width="26" height="26" rx="4" transform="translate(948 305)" fill="#ececec"/>
    <rect id="Rectangle_4-28" data-name="Rectangle 4" width="26" height="26" rx="4" transform="translate(977 305)" fill="#ececec"/>
    <rect id="Rectangle_4-29" data-name="Rectangle 4" width="26" height="26" rx="4" transform="translate(1007 305)" fill="#ececec"/>
    <rect id="Rectangle_4-30" data-name="Rectangle 4" width="26" height="26" rx="4" transform="translate(1037 305)" fill="#ececec"/>
    <rect id="Rectangle_4-31" data-name="Rectangle 4" width="26" height="26" rx="4" transform="translate(888 335)" fill="#ececec"/>
    <rect id="Rectangle_4-32" data-name="Rectangle 4" width="26" height="26" rx="4" transform="translate(918 335)" fill="#ececec"/>
    <rect id="Rectangle_4-33" data-name="Rectangle 4" width="26" height="26" rx="4" transform="translate(948 335)" fill="#ececec"/>
    <rect id="Rectangle_4-34" data-name="Rectangle 4" width="26" height="26" rx="4" transform="translate(977 335)" fill="#ececec"/>
    <rect id="Rectangle_4-35" data-name="Rectangle 4" width="26" height="26" rx="4" transform="translate(1007 335)" fill="#ececec"/>
    <rect id="Rectangle_4-36" data-name="Rectangle 4" width="26" height="26" rx="4" transform="translate(1037 335)" fill="#ececec"/>
  </g>
</svg>
